<?xml version="1.0" encoding="UTF-8"?>
<svg version="1.1" xmlns="http://www.w3.org/2000/svg" width="256" height="256">
<path d="M0 0 C6.29313369 3.05503036 11.31545296 7.95014457 16.41015625 12.65234375 C19.85931575 15.77895742 23.46467962 18.68861227 27.08203125 21.6171875 C30.25417407 24.20755848 33.38043294 26.84682867 36.5 29.5 C40.46891888 32.87296937 44.46017431 36.21176978 48.5 39.5 C53.1045358 43.24787798 57.64019191 47.06983444 62.1640625 50.9140625 C65.5805954 53.81244823 69.02504838 56.671551 72.5 59.5 C77.1045358 63.24787798 81.64019191 67.06983444 86.1640625 70.9140625 C89.5805954 73.81244823 93.02504838 76.671551 96.5 79.5 C97.37527344 80.21671875 98.25054687 80.9334375 99.15234375 81.671875 C100.66762983 82.91070971 102.18394108 84.1483311 103.70751953 85.37695312 C105.50037114 86.82526924 107.28196929 88.28657708 109.0625 89.75 C109.62324219 90.19794922 110.18398437 90.64589844 110.76171875 91.10742188 C113.9946856 93.78696213 115.94080127 95.90222493 117 100 C116.89634995 106.52995315 115.59777507 109.40222493 111 114 C107.53565392 115.73217304 103.78761864 115.48298493 100 115 C97.28666265 113.76666484 95.11883547 112.11883547 93 110 C92.67 124.52 92.34 139.04 92 154 C90.68 154 89.36 154 88 154 C88 156.97 88 159.94 88 163 C88.804375 163.04125 89.60875 163.0825 90.4375 163.125 C97.89547984 164.95678452 103.21341629 169.60408867 107.7109375 175.6796875 C112.23521871 183.82339367 112.52886523 191.26540564 112.50097656 200.37304688 C112.49999888 202.62758105 112.54181736 204.87876346 112.5859375 207.1328125 C112.59114214 208.58072215 112.59383273 210.02864349 112.59375 211.4765625 C112.60083984 212.77674316 112.60792969 214.07692383 112.61523438 215.41650391 C111.81275444 220.0906311 110.317256 221.67711092 107 225 C103.69005287 226.65497356 100.00877 226.10084335 96.375 226.0625 C95.57320312 226.05798828 94.77140625 226.05347656 93.9453125 226.04882812 C91.96350994 226.03703168 89.98174567 226.01909605 88 226 C88.12375 227.299375 88.2475 228.59875 88.375 229.9375 C88.47941406 231.03384766 88.47941406 231.03384766 88.5859375 232.15234375 C88.72257813 232.76207031 88.85921875 233.37179688 89 234 C89.66 234.33 90.32 234.66 91 235 C89.5891975 238.40943937 88.19369282 240.1310833 85 242 C81.74467659 242.38311005 81.74467659 242.38311005 77.80178833 242.39440918 C77.07573171 242.40050028 76.34967508 242.40659139 75.60161674 242.41286707 C73.16800881 242.42951996 70.73492279 242.42471813 68.30126953 242.41992188 C66.55673681 242.42726094 64.81220895 242.43584669 63.06768799 242.44558716 C58.32796083 242.46783013 53.58840738 242.47073242 48.8486352 242.46883965 C44.89234172 242.46872006 40.93608522 242.47727931 36.97980201 242.48561716 C27.64585211 242.5048616 18.31199165 242.50773141 8.97802734 242.50097656 C-0.65145748 242.49433606 -10.28055923 242.51719812 -19.90996635 242.55429029 C-28.1767615 242.58497845 -36.44343337 242.59634825 -44.71028435 242.59245348 C-49.64797569 242.59038491 -54.58536902 242.59588175 -59.52300644 242.62034607 C-64.16723453 242.6425958 -68.81083965 242.64075025 -73.4550705 242.62041855 C-75.15864418 242.61700524 -76.86225966 242.62211144 -78.56577682 242.63640213 C-80.89385149 242.65458301 -83.21981012 242.64185728 -85.54782104 242.62145996 C-86.84972822 242.62217247 -88.1516354 242.62288498 -89.49299431 242.62361908 C-94.09746479 241.80484777 -95.75525774 240.31121855 -99 237 C-99 236.34 -99 235.68 -99 235 C-98.34 234.67 -97.68 234.34 -97 234 C-97 231.36 -97 228.72 -97 226 C-97.86165771 226.03927612 -97.86165771 226.03927612 -98.74072266 226.0793457 C-101.36853171 226.183918 -103.99590231 226.24850944 -106.625 226.3125 C-107.98044922 226.3753418 -107.98044922 226.3753418 -109.36328125 226.43945312 C-113.85913464 226.52149425 -117.00442325 226.52013202 -120.5859375 223.60546875 C-125.45579919 218.34948534 -124.25954207 212.09694625 -124.29516602 205.29931641 C-124.30661475 203.7806664 -124.3269523 202.26205434 -124.35668945 200.74365234 C-124.58096404 189.28936048 -123.89997797 179.30767843 -115.703125 170.53125 C-110.05779067 165.45562831 -103.69376268 162 -96 162 C-96 159.36 -96 156.72 -96 154 C-97.32 154 -98.64 154 -100 154 C-100.33 139.81 -100.66 125.62 -101 111 C-103.64 112.65 -106.28 114.3 -109 116 C-114.04840666 116.06731209 -116.61911533 115.79327417 -120.9375 113.3125 C-124.25233555 109.5958662 -124.97123165 106.553491 -125.0625 101.625 C-122.6750867 93.47970756 -115.50381371 88.58739637 -109.08984375 83.484375 C-105.66122183 80.72760694 -102.32813091 77.87637509 -99 75 C-94.01127883 70.69949452 -88.95776147 66.49512402 -83.84375 62.34375 C-80.52313514 59.60697951 -77.25953218 56.8089705 -74 54 C-69.01059233 49.70027287 -63.95778844 45.49514591 -58.84375 41.34375 C-55.52313514 38.60697951 -52.25953218 35.8089705 -49 33 C-44.01395517 28.70317087 -38.96730383 24.49786106 -33.8515625 20.35546875 C-31.09671515 18.07988936 -28.39850492 15.75123286 -25.70556641 13.40332031 C-7.75113853 -2.19964742 -7.75113853 -2.19964742 0 0 Z " fill="#ABAAB0" transform="translate(132,6)"/>
<path d="M0 0 C3.54118143 2.88657551 6.70300737 6.32788974 8.75390625 10.4296875 C8.84381717 11.97196606 8.87147586 13.51809645 8.86743164 15.06298828 C8.86731834 16.50425583 8.86731834 16.50425583 8.86720276 17.97463989 C8.86204147 19.01425873 8.85688019 20.05387756 8.8515625 21.125 C8.85014755 22.18758026 8.8487326 23.25016052 8.84727478 24.34494019 C8.84166459 27.74821759 8.82911034 31.15142988 8.81640625 34.5546875 C8.81139256 36.85807197 8.80682943 39.16145747 8.80273438 41.46484375 C8.79169185 47.11981399 8.77494377 52.77474609 8.75390625 58.4296875 C10.23503906 58.39488281 10.23503906 58.39488281 11.74609375 58.359375 C13.66808594 58.33230469 13.66808594 58.33230469 15.62890625 58.3046875 C16.90507812 58.28148437 18.18125 58.25828125 19.49609375 58.234375 C22.75390625 58.4296875 22.75390625 58.4296875 24.75390625 60.4296875 C24.98095703 63.04345703 24.98095703 63.04345703 24.94921875 66.3125 C24.93955078 68.06240234 24.93955078 68.06240234 24.9296875 69.84765625 C24.90455078 71.68263672 24.90455078 71.68263672 24.87890625 73.5546875 C24.86988281 74.78574219 24.86085937 76.01679688 24.8515625 77.28515625 C24.82793173 80.33352565 24.79498679 83.38151132 24.75390625 86.4296875 C22.11390625 86.4296875 19.47390625 86.4296875 16.75390625 86.4296875 C16.75390625 79.8296875 16.75390625 73.2296875 16.75390625 66.4296875 C14.11390625 66.4296875 11.47390625 66.4296875 8.75390625 66.4296875 C8.81578125 67.4609375 8.87765625 68.4921875 8.94140625 69.5546875 C8.6511096 75.55415165 6.56179717 78.90566776 2.31640625 82.9921875 C-11.40822962 94.41674627 -31.17561885 95.47838562 -48.24609375 94.4296875 C-57.26930538 93.50580918 -66.2946525 91.99827874 -74.24609375 87.4296875 C-75.29796875 86.8315625 -76.34984375 86.2334375 -77.43359375 85.6171875 C-81.72081639 82.282681 -85.50727711 78.64613742 -87.24609375 73.4296875 C-87.28563609 71.09668925 -87.29011107 68.76260561 -87.24609375 66.4296875 C-89.88609375 66.4296875 -92.52609375 66.4296875 -95.24609375 66.4296875 C-95.24609375 73.0296875 -95.24609375 79.6296875 -95.24609375 86.4296875 C-97.88609375 86.4296875 -100.52609375 86.4296875 -103.24609375 86.4296875 C-103.30393217 82.13807703 -103.33963495 77.84656605 -103.37109375 73.5546875 C-103.38785156 72.33136719 -103.40460938 71.10804688 -103.421875 69.84765625 C-103.42832031 68.68105469 -103.43476562 67.51445312 -103.44140625 66.3125 C-103.45187988 65.23371582 -103.46235352 64.15493164 -103.47314453 63.04345703 C-103.24609375 60.4296875 -103.24609375 60.4296875 -101.24609375 58.4296875 C-97.98828125 58.234375 -97.98828125 58.234375 -94.12109375 58.3046875 C-92.19910156 58.33175781 -92.19910156 58.33175781 -90.23828125 58.359375 C-88.75714844 58.39417969 -88.75714844 58.39417969 -87.24609375 58.4296875 C-87.2549762 57.84166351 -87.26385864 57.25363953 -87.27301025 56.64779663 C-87.36165158 50.51578513 -87.42189758 44.38395628 -87.46582031 38.25146484 C-87.48590892 35.96428024 -87.51318503 33.67714682 -87.54785156 31.39013672 C-87.59648933 28.09850416 -87.61909054 24.80755193 -87.63671875 21.515625 C-87.65736389 20.49665131 -87.67800903 19.47767761 -87.69927979 18.42782593 C-87.70154364 11.23035995 -86.49721282 7.98930692 -81.640625 2.671875 C-61.38538104 -14.83265682 -21.69126422 -14.58160142 0 0 Z " fill="#010303" transform="translate(167.24609375,73.5703125)"/>
<path d="M0 0 C6.29313369 3.05503036 11.31545296 7.95014457 16.41015625 12.65234375 C19.85931575 15.77895742 23.46467962 18.68861227 27.08203125 21.6171875 C30.25417407 24.20755848 33.38043294 26.84682867 36.5 29.5 C40.46891888 32.87296937 44.46017431 36.21176978 48.5 39.5 C53.1045358 43.24787798 57.64019191 47.06983444 62.1640625 50.9140625 C65.5805954 53.81244823 69.02504838 56.671551 72.5 59.5 C77.1045358 63.24787798 81.64019191 67.06983444 86.1640625 70.9140625 C89.5805954 73.81244823 93.02504838 76.671551 96.5 79.5 C97.37527344 80.21671875 98.25054687 80.9334375 99.15234375 81.671875 C100.66762983 82.91070971 102.18394108 84.1483311 103.70751953 85.37695312 C105.50037114 86.82526924 107.28196929 88.28657708 109.0625 89.75 C109.62324219 90.19794922 110.18398437 90.64589844 110.76171875 91.10742188 C113.9946856 93.78696213 115.94080127 95.90222493 117 100 C116.89634995 106.52995315 115.59777507 109.40222493 111 114 C107.53565392 115.73217304 103.78761864 115.48298493 100 115 C97.28666265 113.76666484 95.11883547 112.11883547 93 110 C92.67 124.52 92.34 139.04 92 154 C89.36 154 86.72 154 84 154 C84.01856049 153.3626593 84.03712097 152.7253186 84.0562439 152.06866455 C84.23687009 145.38363637 84.31729135 138.70251957 84.34179688 132.01513672 C84.36374592 129.52617915 84.41052165 127.03730365 84.48339844 124.54931641 C85.52439607 109.8220542 85.52439607 109.8220542 80.02514648 96.8190918 C77.20467515 94.17163356 74.15912833 92.09744962 70.82955933 90.14456177 C67.71734604 88.19757908 65.05319355 85.74079315 62.3125 83.3125 C61.23672316 82.39827137 60.15889478 81.4864457 59.078125 80.578125 C58.56056641 80.14306641 58.04300781 79.70800781 57.50976562 79.25976562 C55.21007552 77.34087802 52.88661026 75.45168904 50.5625 73.5625 C45.14429421 69.15086945 39.8472915 64.60676358 34.55078125 60.05078125 C26.3171638 52.96928518 18.02571863 45.96843645 9.5703125 39.15234375 C6.24966542 36.37168032 3.14394148 33.38619287 0.0703125 30.3359375 C-1.9307014 28.7784143 -1.9307014 28.7784143 -4.4375 29.0078125 C-7.72326485 30.28004462 -9.59358086 32.05170208 -12.125 34.5 C-13.09940724 35.42285391 -14.07602525 36.34337839 -15.0546875 37.26171875 C-15.79283691 37.956604 -15.79283691 37.956604 -16.54589844 38.66552734 C-18.70338915 40.64552134 -20.96885109 42.47736677 -23.25 44.3125 C-27.75367556 47.94760956 -32.13988302 51.69557347 -36.5 55.5 C-41.6321192 59.97552116 -46.83186004 64.34007718 -52.125 68.625 C-56.29662168 72.07112226 -60.36251193 75.63554872 -64.43994141 79.19213867 C-69.04773891 83.20145213 -73.73529078 87.08538045 -78.48828125 90.921875 C-81.83652339 93.69211578 -85.03721515 96.6113768 -88.22265625 99.56640625 C-90 101 -90 101 -92 101 C-92 118.49 -92 135.98 -92 154 C-94.64 154 -97.28 154 -100 154 C-100.33 139.81 -100.66 125.62 -101 111 C-103.64 112.65 -106.28 114.3 -109 116 C-114.04840666 116.06731209 -116.61911533 115.79327417 -120.9375 113.3125 C-124.25233555 109.5958662 -124.97123165 106.553491 -125.0625 101.625 C-122.6750867 93.47970756 -115.50381371 88.58739637 -109.08984375 83.484375 C-105.66122183 80.72760694 -102.32813091 77.87637509 -99 75 C-94.01127883 70.69949452 -88.95776147 66.49512402 -83.84375 62.34375 C-80.52313514 59.60697951 -77.25953218 56.8089705 -74 54 C-69.01059233 49.70027287 -63.95778844 45.49514591 -58.84375 41.34375 C-55.52313514 38.60697951 -52.25953218 35.8089705 -49 33 C-44.01395517 28.70317087 -38.96730383 24.49786106 -33.8515625 20.35546875 C-31.09671515 18.07988936 -28.39850492 15.75123286 -25.70556641 13.40332031 C-7.75113853 -2.19964742 -7.75113853 -2.19964742 0 0 Z " fill="#030200" transform="translate(132,6)"/>
<path d="M0 0 C1.20210114 -0.0159874 2.40420227 -0.03197479 3.64273071 -0.04844666 C4.93029266 -0.05380936 6.21785461 -0.05917206 7.54443359 -0.06469727 C8.89716684 -0.07368086 10.24989918 -0.08280297 11.60263062 -0.09205627 C14.4353068 -0.10850546 17.26786544 -0.11623815 20.10058594 -0.11914062 C23.69813482 -0.12450195 27.29454882 -0.16210353 30.89177895 -0.20788479 C33.68712191 -0.23790975 36.48220084 -0.24486971 39.27769089 -0.24586678 C41.23835 -0.25202122 43.19889339 -0.28136304 45.15933228 -0.31138611 C55.71257995 -0.25885619 65.50798894 2.19150219 73.35693359 9.63842773 C81.01344983 18.3799583 82.17009307 26.94611137 82.13354492 38.30175781 C82.13037403 40.36698693 82.15392286 42.43079595 82.17919922 44.49584961 C82.17984375 45.80618164 82.18048828 47.11651367 82.18115234 48.46655273 C82.1841333 49.65901611 82.18711426 50.85147949 82.19018555 52.08007812 C81.64255215 56.82563577 79.47201431 60.26127714 75.81787109 63.30639648 C69.50209121 65.41165645 62.30219268 66.0148405 55.81787109 64.30639648 C50.33361667 61.34844031 45.7893038 57.05936004 41.35742188 52.72680664 C35.64150183 47.4532223 28.05427278 48.17945441 20.66552734 48.38061523 C11.23722461 49.28507899 5.06987194 55.71209973 -1.18212891 62.30639648 C-4.44802979 65.57229737 -8.49218182 64.71559654 -12.93212891 64.74389648 C-13.82673828 64.77676758 -14.72134766 64.80963867 -15.64306641 64.84350586 C-20.1043466 64.87969619 -23.21348928 64.78659352 -26.76025391 61.90405273 C-31.64678328 56.66285591 -30.44168556 50.40056054 -30.47729492 43.60571289 C-30.48874365 42.08706289 -30.50908121 40.56845082 -30.53881836 39.05004883 C-30.76309294 27.59575696 -30.08210688 17.61407492 -21.88525391 8.83764648 C-15.54365204 3.13602279 -8.57554473 0.08673984 0 0 Z " fill="#FD9610" transform="translate(38.18212890625,167.693603515625)"/>
<path d="M0 0 C1.72285469 -0.00945648 1.72285469 -0.00945648 3.48051453 -0.019104 C5.33057854 -0.01303131 5.33057854 -0.01303131 7.21801758 -0.00683594 C8.49679276 -0.00874939 9.77556793 -0.01066284 11.09309387 -0.01263428 C13.79892823 -0.01557805 16.50463029 -0.01131561 19.21044922 -0.00195312 C22.65202859 0.00938384 26.09329396 0.00291413 29.53486156 -0.00909805 C32.84593747 -0.01813881 36.1569328 -0.0117719 39.46801758 -0.00683594 C40.69127243 -0.0108844 41.91452728 -0.01493286 43.17485046 -0.019104 C54.26653031 0.0409524 63.55132389 0.79150233 72.17504883 8.25878906 C80.72525652 17.29437972 81.71247437 26.72863924 81.67602539 38.63183594 C81.67504771 40.88637011 81.71686619 43.13755252 81.76098633 45.39160156 C81.76619096 46.83951122 81.76888156 48.28743256 81.76879883 49.73535156 C81.77588867 51.03553223 81.78297852 52.33571289 81.7902832 53.67529297 C80.98780326 58.34942017 79.49230483 59.93589999 76.17504883 63.25878906 C70.35959924 66.16651386 61.38856748 65.76095841 55.17504883 64.25878906 C49.61346899 61.38234267 45.08099062 57.08131232 40.68286133 52.67919922 C35.04478916 47.36794535 27.35471449 48.13339919 20.01879883 48.33300781 C11.22959865 49.17602423 5.54476881 54.70403041 -0.36474609 60.83837891 C-5.08254891 65.42760759 -9.87088793 64.73937305 -16.04345703 64.77172852 C-20.55359543 64.66745576 -23.81250864 64.47934557 -27.38745117 61.44628906 C-32.15045631 56.2186005 -31.08156407 49.35162443 -31.12011719 42.70947266 C-31.13158435 41.33632052 -31.15195232 39.96321108 -31.18164062 38.59033203 C-31.36180646 30.25036508 -31.19390842 23.50656426 -26.82495117 16.25878906 C-26.15592773 15.06189453 -26.15592773 15.06189453 -25.47338867 13.84082031 C-19.61593273 5.70147203 -10.12212622 0.0159964 0 0 Z " fill="#FD9610" transform="translate(162.824951171875,167.7412109375)"/>
<path d="M0 0 C2.7124883 1.21130203 4.45451227 2.86925042 6.609375 4.9140625 C10.08912141 8.13981282 13.60597586 11.24440323 17.296875 14.2265625 C21.56418935 17.68248609 25.75991184 21.20793154 29.921875 24.7890625 C38.37426592 32.05906645 46.83263197 39.3188591 55.484375 46.3515625 C60.25058807 50.23103826 64.92606805 54.20660375 69.57397461 58.22631836 C70.11030518 58.68917236 70.64663574 59.15202637 71.19921875 59.62890625 C71.76850098 60.15226562 72.3377832 60.675625 72.92431641 61.21484375 C75.10295268 63.06497742 75.10295268 63.06497742 78.13427734 64.56640625 C81.98760939 66.9331361 84.8822959 68.88076305 87.046875 72.9140625 C89.08560736 81.72400273 88.17012426 91.08108027 87.796875 100.0390625 C87.73662837 102.54674761 87.68188494 105.05457134 87.6328125 107.5625 C87.50111468 113.68273001 87.30082956 119.7977502 87.046875 125.9140625 C88.366875 125.9140625 89.686875 125.9140625 91.046875 125.9140625 C91.046875 128.8840625 91.046875 131.8540625 91.046875 134.9140625 C90.27981232 134.90518005 89.51274963 134.89629761 88.72244263 134.887146 C81.45581793 134.80664241 74.18941271 134.74591804 66.92245674 134.70681381 C63.1873671 134.68603326 59.4526492 134.65789327 55.71777344 134.61230469 C52.10618365 134.56850219 48.494949 134.54485391 44.88311386 134.53455353 C43.51252536 134.52722322 42.14195394 134.51291052 40.77151871 134.49114227 C33.11616943 134.37449745 27.12787787 134.8067638 20.14767456 138.03308105 C17.23432016 139.25481169 14.85411617 139.23242917 11.734375 138.9375 C10.63867188 138.84339844 9.54296875 138.74929687 8.4140625 138.65234375 C7.30289063 138.53246094 6.19171875 138.41257813 5.046875 138.2890625 C3.93570313 138.19238281 2.82453125 138.09570312 1.6796875 137.99609375 C-15.48071878 136.4011854 -15.48071878 136.4011854 -22.953125 132.9140625 C-22.953125 132.5840625 -22.953125 132.2540625 -22.953125 131.9140625 C-22.21191406 131.98625 -21.47070312 132.0584375 -20.70703125 132.1328125 C-0.6669696 133.89888892 23.33585757 135.13554033 40.046875 121.9140625 C45.14963239 117.14409364 46.16240585 112.59378472 47.046875 105.9140625 C49.686875 105.9140625 52.326875 105.9140625 55.046875 105.9140625 C55.046875 112.5140625 55.046875 119.1140625 55.046875 125.9140625 C57.686875 125.9140625 60.326875 125.9140625 63.046875 125.9140625 C62.90875578 121.60127865 62.76009391 117.28892297 62.609375 112.9765625 C62.57005859 111.74486328 62.53074219 110.51316406 62.49023438 109.24414062 C62.42739258 107.4894043 62.42739258 107.4894043 62.36328125 105.69921875 C62.32662354 104.61519775 62.28996582 103.53117676 62.25219727 102.41430664 C62.32323235 99.9747995 62.32323235 99.9747995 61.046875 98.9140625 C58.69700238 98.67878477 56.34131461 98.50019833 53.984375 98.3515625 C52.04884766 98.22587891 52.04884766 98.22587891 50.07421875 98.09765625 C49.07519531 98.03707031 48.07617188 97.97648437 47.046875 97.9140625 C47.04140656 97.03202652 47.04140656 97.03202652 47.03582764 96.13217163 C46.99394528 89.99966219 46.92455953 83.86789717 46.83935547 77.73583984 C46.81116848 75.44880629 46.78994269 73.16167573 46.77587891 70.87451172 C46.75441862 67.58250344 46.70775029 64.29165872 46.65625 61 C46.65440704 59.47153946 46.65440704 59.47153946 46.65252686 57.91220093 C46.49421941 50.20065565 44.9549876 46.89487791 39.546875 41.3515625 C25.02121716 29.92274542 3.56506403 29.92557534 -13.953125 30.9140625 C-27.07746309 32.68480653 -38.62175593 37.39022788 -46.953125 47.9140625 C-49.71516098 50.81624407 -52.63942705 53.34964371 -55.765625 55.8515625 C-60.41074432 59.6160317 -64.94822755 63.48320105 -69.453125 67.4140625 C-87.24531478 82.9140625 -87.24531478 82.9140625 -88.953125 82.9140625 C-89.68384251 79.37857069 -89.80703981 76.43894341 -88.953125 72.9140625 C-86.25368543 69.80860966 -83.03583686 67.59070038 -79.69482422 65.21240234 C-76.45784954 62.79941785 -73.47685333 60.08563124 -70.453125 57.4140625 C-65.32411559 52.9350916 -60.12111267 48.57386204 -54.828125 44.2890625 C-51.31764861 41.38910375 -47.88479773 38.40648112 -44.453125 35.4140625 C-39.32360232 30.94111873 -34.12774229 26.57770813 -28.8359375 22.296875 C-25.27804665 19.35607091 -21.80524147 16.32449702 -18.328125 13.2890625 C-9.25916495 5.41677251 -9.25916495 5.41677251 -5.765625 2.5390625 C-5.11207031 1.99507812 -4.45851563 1.45109375 -3.78515625 0.890625 C-1.953125 -0.0859375 -1.953125 -0.0859375 0 0 Z " fill="#AAA9AF" transform="translate(128.953125,34.0859375)"/>
<path d="M0 0 C1.20210114 -0.0159874 2.40420227 -0.03197479 3.64273071 -0.04844666 C4.93029266 -0.05380936 6.21785461 -0.05917206 7.54443359 -0.06469727 C8.89716684 -0.07368086 10.24989918 -0.08280297 11.60263062 -0.09205627 C14.4353068 -0.10850546 17.26786544 -0.11623815 20.10058594 -0.11914062 C23.69813482 -0.12450195 27.29454882 -0.16210353 30.89177895 -0.20788479 C33.68712191 -0.23790975 36.48220084 -0.24486971 39.27769089 -0.24586678 C41.23835 -0.25202122 43.19889339 -0.28136304 45.15933228 -0.31138611 C55.71257995 -0.25885619 65.50798894 2.19150219 73.35693359 9.63842773 C81.01344983 18.3799583 82.17009307 26.94611137 82.13354492 38.30175781 C82.13037403 40.36698693 82.15392286 42.43079595 82.17919922 44.49584961 C82.17984375 45.80618164 82.18048828 47.11651367 82.18115234 48.46655273 C82.1841333 49.65901611 82.18711426 50.85147949 82.19018555 52.08007812 C81.64255215 56.82563577 79.47201431 60.26127714 75.81787109 63.30639648 C69.50209121 65.41165645 62.30219268 66.0148405 55.81787109 64.30639648 C50.33361667 61.34844031 45.7893038 57.05936004 41.35742188 52.72680664 C35.64150183 47.4532223 28.05427278 48.17945441 20.66552734 48.38061523 C11.23722461 49.28507899 5.06987194 55.71209973 -1.18212891 62.30639648 C-4.44802979 65.57229737 -8.49218182 64.71559654 -12.93212891 64.74389648 C-13.82673828 64.77676758 -14.72134766 64.80963867 -15.64306641 64.84350586 C-20.1043466 64.87969619 -23.21348928 64.78659352 -26.76025391 61.90405273 C-31.64678328 56.66285591 -30.44168556 50.40056054 -30.47729492 43.60571289 C-30.48874365 42.08706289 -30.50908121 40.56845082 -30.53881836 39.05004883 C-30.76309294 27.59575696 -30.08210688 17.61407492 -21.88525391 8.83764648 C-15.54365204 3.13602279 -8.57554473 0.08673984 0 0 Z M-16.55712891 16.74389648 C-17.20423828 17.48510742 -17.85134766 18.22631836 -18.51806641 18.98999023 C-21.76499084 23.50977002 -22.43677834 27.33140122 -22.44775391 32.84936523 C-22.45033203 34.08750977 -22.45291016 35.3256543 -22.45556641 36.60131836 C-22.44783203 37.88586914 -22.44009766 39.17041992 -22.43212891 40.49389648 C-22.43986328 41.79004883 -22.44759766 43.08620117 -22.45556641 44.42163086 C-22.45298828 45.6559082 -22.45041016 46.89018555 -22.44775391 48.16186523 C-22.44549805 49.29261475 -22.44324219 50.42336426 -22.44091797 51.58837891 C-22.4592175 54.4539086 -22.4592175 54.4539086 -20.18212891 56.30639648 C-15.18853122 57.44757142 -9.92297184 57.79578431 -5.29785156 55.2824707 C-2.13162153 53.10275396 0.75328884 50.65141416 3.62646484 48.10327148 C4.16859619 47.62857422 4.71072754 47.15387695 5.26928711 46.66479492 C6.66064673 45.44431173 8.04810474 44.21938407 9.43505859 42.99389648 C14.66589342 40.3845193 19.73262467 40.5405674 25.50537109 40.55639648 C26.67769287 40.55889404 27.85001465 40.5613916 29.05786133 40.56396484 C37.04899953 40.78835014 41.78972431 41.52834451 47.73583984 47.06030273 C48.76644531 48.17211914 48.76644531 48.17211914 49.81787109 49.30639648 C55.00502191 54.28866882 58.3681322 56.74726247 65.75537109 56.86889648 C70.32355798 56.86796521 70.32355798 56.86796521 73.81787109 54.30639648 C74.30988878 49.78396842 74.18830217 45.22747856 74.19287109 40.68139648 C74.22960937 38.79227539 74.22960937 38.79227539 74.26708984 36.86499023 C74.29453942 28.14517423 73.43906678 22.45431155 67.66943359 15.84545898 C66.93466797 15.21381836 66.19990234 14.58217773 65.44287109 13.93139648 C64.71326172 13.28428711 63.98365234 12.63717773 63.23193359 11.97045898 C58.7181626 8.85902461 54.25428889 8.05665176 48.84765625 8.01586914 C47.6927066 8.00310944 46.53775696 7.99034973 45.34780884 7.97720337 C44.11332001 7.97497772 42.87883118 7.97275208 41.60693359 7.97045898 C40.32483002 7.96380219 39.04272644 7.95714539 37.72177124 7.95028687 C35.01353588 7.93834843 32.30542776 7.9346025 29.59716797 7.93579102 C26.14509996 7.93599408 22.69385631 7.9086906 19.24198341 7.8742466 C15.92612258 7.84652016 12.61040864 7.8478257 9.29443359 7.84545898 C8.06399323 7.83108795 6.83355286 7.81671692 5.56582642 7.8019104 C-3.74849997 7.85126521 -10.27404364 9.34524302 -16.55712891 16.74389648 Z " fill="#020201" transform="translate(38.18212890625,167.693603515625)"/>
<path d="M0 0 C1.72285469 -0.00945648 1.72285469 -0.00945648 3.48051453 -0.019104 C5.33057854 -0.01303131 5.33057854 -0.01303131 7.21801758 -0.00683594 C8.49679276 -0.00874939 9.77556793 -0.01066284 11.09309387 -0.01263428 C13.79892823 -0.01557805 16.50463029 -0.01131561 19.21044922 -0.00195312 C22.65202859 0.00938384 26.09329396 0.00291413 29.53486156 -0.00909805 C32.84593747 -0.01813881 36.1569328 -0.0117719 39.46801758 -0.00683594 C40.69127243 -0.0108844 41.91452728 -0.01493286 43.17485046 -0.019104 C54.26653031 0.0409524 63.55132389 0.79150233 72.17504883 8.25878906 C80.72525652 17.29437972 81.71247437 26.72863924 81.67602539 38.63183594 C81.67504771 40.88637011 81.71686619 43.13755252 81.76098633 45.39160156 C81.76619096 46.83951122 81.76888156 48.28743256 81.76879883 49.73535156 C81.77588867 51.03553223 81.78297852 52.33571289 81.7902832 53.67529297 C80.98780326 58.34942017 79.49230483 59.93589999 76.17504883 63.25878906 C70.35959924 66.16651386 61.38856748 65.76095841 55.17504883 64.25878906 C49.61346899 61.38234267 45.08099062 57.08131232 40.68286133 52.67919922 C35.04478916 47.36794535 27.35471449 48.13339919 20.01879883 48.33300781 C11.22959865 49.17602423 5.54476881 54.70403041 -0.36474609 60.83837891 C-5.08254891 65.42760759 -9.87088793 64.73937305 -16.04345703 64.77172852 C-20.55359543 64.66745576 -23.81250864 64.47934557 -27.38745117 61.44628906 C-32.15045631 56.2186005 -31.08156407 49.35162443 -31.12011719 42.70947266 C-31.13158435 41.33632052 -31.15195232 39.96321108 -31.18164062 38.59033203 C-31.36180646 30.25036508 -31.19390842 23.50656426 -26.82495117 16.25878906 C-26.15592773 15.06189453 -26.15592773 15.06189453 -25.47338867 13.84082031 C-19.61593273 5.70147203 -10.12212622 0.0159964 0 0 Z M-17.19995117 16.69628906 C-17.84706055 17.4375 -18.49416992 18.17871094 -19.16088867 18.94238281 C-22.4078131 23.46216259 -23.07960061 27.2837938 -23.09057617 32.80175781 C-23.0931543 34.03990234 -23.09573242 35.27804688 -23.09838867 36.55371094 C-23.0906543 37.83826172 -23.08291992 39.1228125 -23.07495117 40.44628906 C-23.08268555 41.74244141 -23.09041992 43.03859375 -23.09838867 44.37402344 C-23.09581055 45.60830078 -23.09323242 46.84257812 -23.09057617 48.11425781 C-23.08832031 49.24500732 -23.08606445 50.37575684 -23.08374023 51.54077148 C-23.10203976 54.40630118 -23.10203976 54.40630118 -20.82495117 56.25878906 C-15.47742356 57.68764844 -10.4537002 57.73713619 -5.59790039 55.00634766 C-1.00006113 51.85974093 3.27987739 48.33479151 7.48022461 44.67919922 C14.76429167 38.57451726 26.13848031 40.36143811 35.19018555 40.87841797 C41.41269837 41.67137355 44.95915473 44.71068568 49.17504883 49.25878906 C54.36219965 54.24106139 57.72530993 56.69965505 65.11254883 56.82128906 C69.68073572 56.82035779 69.68073572 56.82035779 73.17504883 54.25878906 C73.66706651 49.736361 73.5454799 45.17987114 73.55004883 40.63378906 C73.58678711 38.74466797 73.58678711 38.74466797 73.62426758 36.81738281 C73.65171716 28.09756681 72.79624452 22.40670413 67.02661133 15.79785156 C66.2918457 15.16621094 65.55708008 14.53457031 64.80004883 13.88378906 C64.07043945 13.23667969 63.34083008 12.58957031 62.58911133 11.92285156 C58.07534034 8.81141719 53.61146663 8.00904433 48.20483398 7.96826172 C47.04988434 7.95550201 45.89493469 7.94274231 44.70498657 7.92959595 C43.47049774 7.9273703 42.23600891 7.92514465 40.96411133 7.92285156 C39.68200775 7.91619476 38.39990417 7.90953796 37.07894897 7.90267944 C34.37071362 7.89074101 31.66260549 7.88699508 28.9543457 7.88818359 C25.5022777 7.88838666 22.05103405 7.86108318 18.59916115 7.82663918 C15.28330031 7.79891274 11.96758637 7.80021828 8.65161133 7.79785156 C7.42117096 7.78348053 6.19073059 7.7691095 4.92300415 7.75430298 C-4.39132224 7.80365779 -10.91686591 9.2976356 -17.19995117 16.69628906 Z " fill="#020201" transform="translate(162.824951171875,167.7412109375)"/>
<path d="M0 0 C4.48758833 0.99596986 6.95655092 3.52153293 10.25 6.6171875 C11.58354239 7.82282467 12.91818403 9.02724706 14.25390625 10.23046875 C14.90375488 10.8229541 15.55360352 11.41543945 16.22314453 12.02587891 C18.64498019 14.2034094 21.15228996 16.26088381 23.6875 18.3046875 C27.68988744 21.54697762 31.63849958 24.84356951 35.5625 28.1796875 C39.50896124 31.53420846 43.47892235 34.85190712 47.5 38.1171875 C52.36299424 42.07412168 57.11950203 46.14404692 61.86865234 50.23583984 C66.28281766 54.03132117 70.76583198 57.73246663 75.28515625 61.40234375 C78.40646667 63.96173049 81.48689842 66.56574174 84.5625 69.1796875 C88.59927648 72.60767766 92.65358513 76.01032284 96.75 79.3671875 C98.06484375 80.44806641 98.06484375 80.44806641 99.40625 81.55078125 C101.23322928 83.01505141 103.08962222 84.44312646 104.96875 85.83984375 C105.8865625 86.52949219 106.804375 87.21914062 107.75 87.9296875 C108.57886719 88.53296875 109.40773437 89.13625 110.26171875 89.7578125 C112.0625 91.6796875 112.0625 91.6796875 112.45703125 94.2890625 C112.0625 96.6796875 112.0625 96.6796875 110.0625 98.6796875 C105.64554909 98.44332892 103.55112205 96.67876158 100.4375 93.6796875 C96.98275221 90.44404614 93.49672597 87.3395645 89.8125 84.3671875 C85.4979932 80.87536208 81.26536508 77.30396746 77.0625 73.6796875 C72.96023502 70.14353841 68.83447907 66.65105242 64.625 63.2421875 C59.52022157 59.09972371 54.56627318 54.79849651 49.61181641 50.47900391 C45.10290674 46.55706646 40.51542983 42.74929635 35.87109375 38.98828125 C32.55951436 36.2662459 29.30939272 33.47826449 26.0625 30.6796875 C20.90525582 26.23589607 15.70193001 21.86688995 10.3984375 17.59765625 C8.42332361 15.97594903 6.56072098 14.29003181 4.6875 12.5546875 C2.29486829 10.45235762 2.29486829 10.45235762 -0.1875 10.71875 C-4.01053759 12.05464098 -6.61304314 14.50395457 -9.5625 17.1796875 C-10.81548276 18.28620287 -12.06939783 19.39166335 -13.32421875 20.49609375 C-13.93958496 21.04152832 -14.55495117 21.58696289 -15.18896484 22.14892578 C-17.53407594 24.20196216 -19.94741105 26.16274182 -22.375 28.1171875 C-27.42604068 32.21884021 -32.33878396 36.46559761 -37.24536133 40.73754883 C-42.89994531 45.65834824 -48.61213329 50.50742471 -54.34472656 55.33691406 C-57.04564812 57.61390189 -59.74127244 59.89714544 -62.4375 62.1796875 C-63.52080865 63.09638334 -64.60414196 64.01305003 -65.6875 64.9296875 C-66.22375 65.3834375 -66.76 65.8371875 -67.3125 66.3046875 C-68.9375 67.6796875 -70.5625 69.0546875 -72.1875 70.4296875 C-72.72391113 70.88359863 -73.26032227 71.33750977 -73.81298828 71.80517578 C-74.89459521 72.72033163 -75.97630069 73.635371 -77.05810547 74.55029297 C-79.79367939 76.86412228 -82.52742474 79.18005221 -85.2578125 81.5 C-87.43003819 83.34568823 -89.60741415 85.18499352 -91.7890625 87.01953125 C-93.88567196 88.78308893 -95.96040643 90.56841325 -98.0234375 92.37109375 C-98.98507813 93.19480469 -99.94671875 94.01851563 -100.9375 94.8671875 C-101.783125 95.60324219 -102.62875 96.33929688 -103.5 97.09765625 C-106.27181949 98.89667371 -107.69677702 99.11290915 -110.9375 98.6796875 C-111.9375 97.6796875 -111.9375 97.6796875 -112.26953125 95.3828125 C-111.81705975 91.69916218 -110.43765716 90.7917946 -107.625 88.4296875 C-106.70589844 87.64722656 -105.78679687 86.86476563 -104.83984375 86.05859375 C-103.88207031 85.27355469 -102.92429687 84.48851563 -101.9375 83.6796875 C-101.07253906 82.96683594 -100.20757812 82.25398438 -99.31640625 81.51953125 C-97.52246928 80.05079534 -95.72408714 78.58747625 -93.921875 77.12890625 C-90.54988637 74.3615805 -87.24084554 71.5282181 -83.9375 68.6796875 C-78.94824306 64.379789 -73.89528266 60.17482872 -68.78125 56.0234375 C-65.46063514 53.28666701 -62.19703218 50.488658 -58.9375 47.6796875 C-53.94809233 43.37996037 -48.89528844 39.17483341 -43.78125 35.0234375 C-40.46063406 32.28666612 -37.19706291 29.48862365 -33.9375 26.6796875 C-28.93369914 22.36839807 -23.88067617 18.13358962 -18.734375 13.9921875 C-16.63625002 12.25742495 -14.60111343 10.49831047 -12.578125 8.6796875 C-12.00392822 8.17123291 -11.42973145 7.66277832 -10.83813477 7.13891602 C-9.72359095 6.14889869 -8.61922189 5.14726593 -7.52709961 4.13256836 C-5.08208059 1.9777868 -3.19008857 0.7381322 0 0 Z " fill="#F69310" transform="translate(127.9375,14.3203125)"/>
<path d="M0 0 C3.0074347 2.79261794 3.95423055 3.90153312 4.125 8 C2.10658212 13.38244767 -2.10945759 15.71689099 -7.0625 18.125 C-24.45124231 25.17216739 -45.42706343 25.79104701 -63 19 C-68.28681774 16.70332882 -73.18433898 14.24736826 -76 9 C-76.125 6 -76.125 6 -75 3 C-57.92787363 -14.4885197 -18.98749093 -14.21894298 0 0 Z " fill="#58A7E3" transform="translate(164,81)"/>
<path d="M0 0 C0.85980469 0.39832031 1.71960938 0.79664063 2.60546875 1.20703125 C24.7100928 11.11433821 48.02159229 12.27745589 71 4 C74.11773972 2.79672931 77.02015856 1.51803243 80 0 C80.13593443 2.54348425 80.23448907 5.07961496 80.3125 7.625 C80.35439453 8.33785156 80.39628906 9.05070313 80.43945312 9.78515625 C80.52913229 13.69516774 80.25264572 16.22527709 77.79296875 19.35546875 C66.27063586 30.2654259 48.57839074 30.71430661 33.625 30.3515625 C22.24608381 29.82008758 10.18419194 26.95595287 1.77734375 18.859375 C-0.61589964 15.00914607 -0.45572155 12.11446945 -0.25 7.6875 C-0.23195313 6.94693359 -0.21390625 6.20636719 -0.1953125 5.44335938 C-0.14847337 3.6283429 -0.07673789 1.81399834 0 0 Z " fill="#58A7E3" transform="translate(88,130)"/>
<path d="M0 0 C0.85980469 0.39832031 1.71960938 0.79664062 2.60546875 1.20703125 C24.7100928 11.11433821 48.02159229 12.27745589 71 4 C74.11773972 2.79672931 77.02015856 1.51803243 80 0 C80.13593443 2.54348425 80.23448907 5.07961496 80.3125 7.625 C80.35439453 8.33785156 80.39628906 9.05070312 80.43945312 9.78515625 C80.5297516 13.72216984 80.24982577 16.22140918 77.75 19.35546875 C66.815483 29.87062217 50.14711076 30.49676238 35.73608398 30.42382812 C23.68585601 30.09668262 10.72571727 27.4774922 1.77734375 18.859375 C-0.61589964 15.00914607 -0.45572155 12.11446945 -0.25 7.6875 C-0.23195313 6.94693359 -0.21390625 6.20636719 -0.1953125 5.44335938 C-0.14847337 3.6283429 -0.07673789 1.81399834 0 0 Z " fill="#3C97DE" transform="translate(88,102)"/>
<path d="M0 0 C2.29080488 0.09452513 4.58433632 0.12629923 6.87709045 0.12698364 C7.5806136 0.12854363 8.28413675 0.13010362 9.00897878 0.13171089 C11.37197381 0.13570713 13.73490486 0.13253656 16.09790039 0.12939453 C17.78965798 0.13074917 19.48141527 0.13252945 21.173172 0.13470459 C25.77216285 0.13927113 30.37113132 0.13749264 34.97012258 0.1343255 C39.77650467 0.13179831 44.58288481 0.13414041 49.38926697 0.13571167 C57.46044256 0.13753213 65.531609 0.13513009 73.6027832 0.13037109 C82.94418573 0.12492687 92.28556644 0.12669279 101.62696844 0.1321975 C109.63803611 0.13672993 117.64909719 0.1373786 125.66016573 0.13475883 C130.44895977 0.13319701 135.23774355 0.13299974 140.02653694 0.13629532 C144.52690723 0.13917597 149.02724928 0.13719475 153.5276165 0.13140106 C155.18287484 0.13007459 156.83813554 0.13046568 158.49339294 0.13266373 C160.74559219 0.13537958 162.99769984 0.13198875 165.24989319 0.12698364 C166.51254029 0.12660662 167.7751874 0.12622959 169.07609653 0.12584114 C171.93606002 0.20211189 171.93606002 0.20211189 174 -1 C176.35981813 -0.06421005 178.69631264 0.93347808 181 2 C179.5891975 5.40943937 178.19369282 7.1310833 175 9 C171.74467659 9.38311005 171.74467659 9.38311005 167.80178833 9.39440918 C167.07573171 9.40050028 166.34967508 9.40659139 165.60161674 9.41286707 C163.16800881 9.42951996 160.73492279 9.42471813 158.30126953 9.41992188 C156.55673681 9.42726094 154.81220895 9.43584669 153.06768799 9.44558716 C148.32796083 9.46783013 143.58840738 9.47073242 138.8486352 9.46883965 C134.89234172 9.46872006 130.93608522 9.47727931 126.97980201 9.48561716 C117.64585211 9.5048616 108.31199165 9.50773141 98.97802734 9.50097656 C89.34854252 9.49433606 79.71944077 9.51719812 70.09003365 9.55429029 C61.8232385 9.58497845 53.55656663 9.59634825 45.28971565 9.59245348 C40.35202431 9.59038491 35.41463098 9.59588175 30.47699356 9.62034607 C25.83276547 9.6425958 21.18916035 9.64075025 16.5449295 9.62041855 C14.84135582 9.61700524 13.13774034 9.62211144 11.43422318 9.63640213 C9.10614851 9.65458301 6.78018988 9.64185728 4.45217896 9.62145996 C3.15027178 9.62217247 1.8483646 9.62288498 0.50700569 9.62361908 C-4.09746479 8.80484777 -5.75525774 7.31121855 -9 4 C-9 3.34 -9 2.68 -9 2 C-3.375 -1.125 -3.375 -1.125 0 0 Z " fill="#000000" transform="translate(42,239)"/>
<path d="M0 0 C2.4397545 1.18199287 2.92721259 2.43533827 3.88671875 4.9140625 C1.6584608 6.8526161 -0.57066254 8.79015091 -2.80078125 10.7265625 C-3.47544434 11.31244141 -4.15010742 11.89832031 -4.84521484 12.50195312 C-10.28586603 17.21743905 -15.78112373 21.86330508 -21.30859375 26.4765625 C-24.15342483 28.8904271 -24.15342483 28.8904271 -26.79296875 31.6015625 C-29.72064813 34.51938437 -32.78235765 36.25782655 -36.42578125 38.1015625 C-40.3824566 40.27259541 -42.98718622 42.60595695 -45.7265625 46.16796875 C-48.69575774 49.90664557 -52.21146223 52.87896617 -55.92578125 55.8515625 C-60.57090057 59.6160317 -65.1083838 63.48320105 -69.61328125 67.4140625 C-87.40547103 82.9140625 -87.40547103 82.9140625 -89.11328125 82.9140625 C-89.84399876 79.37857069 -89.96719606 76.43894341 -89.11328125 72.9140625 C-86.41384168 69.80860966 -83.19599311 67.59070038 -79.85498047 65.21240234 C-76.61800579 62.79941785 -73.63700958 60.08563124 -70.61328125 57.4140625 C-65.48427184 52.9350916 -60.28126892 48.57386204 -54.98828125 44.2890625 C-51.47780486 41.38910375 -48.04495398 38.40648112 -44.61328125 35.4140625 C-39.48375857 30.94111873 -34.28789854 26.57770813 -28.99609375 22.296875 C-25.4382029 19.35607091 -21.96539772 16.32449702 -18.48828125 13.2890625 C-9.4193212 5.41677251 -9.4193212 5.41677251 -5.92578125 2.5390625 C-5.27222656 1.99507812 -4.61867188 1.45109375 -3.9453125 0.890625 C-2.11328125 -0.0859375 -2.11328125 -0.0859375 0 0 Z " fill="#86858D" transform="translate(129.11328125,34.0859375)"/>
<path d="M0 0 C1.32 0 2.64 0 4 0 C4.08165496 2.20770805 4.13948488 4.41630425 4.1875 6.625 C4.23970703 8.46964844 4.23970703 8.46964844 4.29296875 10.3515625 C3.89776312 15.27318992 2.66399998 18.54166294 -1.0859375 21.828125 C-1.84132813 22.29734375 -2.59671875 22.7665625 -3.375 23.25 C-4.12523437 23.72953125 -4.87546875 24.2090625 -5.6484375 24.703125 C-10.15623961 27.1891554 -14.50539572 28.40010138 -19.5234375 29.33984375 C-22.17049944 29.94314977 -22.17049944 29.94314977 -24.98828125 31.609375 C-30.38009748 33.98568756 -36.1074355 32.87232766 -41.8125 32.3125 C-42.93720703 32.22033203 -44.06191406 32.12816406 -45.22070312 32.03320312 C-62.45481177 30.52108784 -62.45481177 30.52108784 -70 27 C-70 26.67 -70 26.34 -70 26 C-69.25878906 26.0721875 -68.51757812 26.144375 -67.75390625 26.21875 C-47.7138446 27.98482642 -23.71101743 29.22147783 -7 16 C-1.89724261 11.23003114 -0.88446915 6.67972222 0 0 Z " fill="#85848B" transform="translate(176,140)"/>
<path d="M0 0 C15.84 0 31.68 0 48 0 C48 2.64 48 5.28 48 8 C32.16 8 16.32 8 0 8 C0 5.36 0 2.72 0 0 Z " fill="#000000" transform="translate(104,84)"/>
<path d="M0 0 C1.00224609 -0.02449219 2.00449219 -0.04898438 3.03710938 -0.07421875 C10.42565034 -0.10379263 10.42565034 -0.10379263 13.75390625 2.3984375 C14.18574219 3.05070313 14.61757812 3.70296875 15.0625 4.375 C13.84175781 4.33117187 12.62101562 4.28734375 11.36328125 4.2421875 C-3.27636354 4.11697315 -9.4103415 7.99239598 -19.78515625 18.16796875 C-23.61269749 20.84772191 -26.55255254 21.09229412 -31.0625 20.9375 C-31.76503906 20.94845703 -32.46757812 20.95941406 -33.19140625 20.97070312 C-36.78368838 20.91977285 -38.61467122 20.63862663 -41.4296875 18.33984375 C-41.92726562 17.69144531 -42.42484375 17.04304688 -42.9375 16.375 C-42.1846875 16.45363281 -41.431875 16.53226563 -40.65625 16.61328125 C-29.39647367 16.87291201 -23.47982349 11.10700355 -15.54052734 3.77954102 C-10.5804225 -0.56640525 -6.29480352 0.00806509 0 0 Z " fill="#87868E" transform="translate(187.9375,215.625)"/>
<path d="M0 0 C2.64 0 5.28 0 8 0 C8 2.64 8 5.28 8 8 C10.64 8 13.28 8 16 8 C16 10.64 16 13.28 16 16 C13.36 16 10.72 16 8 16 C8 18.64 8 21.28 8 24 C5.36 24 2.72 24 0 24 C0 21.36 0 18.72 0 16 C-2.64 16 -5.28 16 -8 16 C-8 13.36 -8 10.72 -8 8 C-5.36 8 -2.72 8 0 8 C0 5.36 0 2.72 0 0 Z " fill="#000000" transform="translate(156,184)"/>
<path d="M0 0 C2.64 0 5.28 0 8 0 C8 2.64 8 5.28 8 8 C10.64 8 13.28 8 16 8 C16 10.64 16 13.28 16 16 C13.36 16 10.72 16 8 16 C8 18.64 8 21.28 8 24 C5.36 24 2.72 24 0 24 C0 21.36 0 18.72 0 16 C-2.64 16 -5.28 16 -8 16 C-8 13.36 -8 10.72 -8 8 C-5.36 8 -2.72 8 0 8 C0 5.36 0 2.72 0 0 Z " fill="#000000" transform="translate(32,184)"/>
<path d="M0 0 C0.9796875 -0.00644531 1.959375 -0.01289063 2.96875 -0.01953125 C10.04477565 0.08680247 10.04477565 0.08680247 13.421875 2.6640625 C13.86015625 3.31117188 14.2984375 3.95828125 14.75 4.625 C13.52925781 4.58117187 12.30851562 4.53734375 11.05078125 4.4921875 C-1.74175963 4.38277161 -7.99684101 6.77756651 -17.25 15.625 C-22.71491354 20.56683843 -22.71491354 20.56683843 -26.125 20.9375 C-26.82625 20.834375 -27.5275 20.73125 -28.25 20.625 C-28.73942598 15.2413142 -28.73942598 15.2413142 -26.5625 12.5 C-25.799375 11.88125 -25.03625 11.2625 -24.25 10.625 C-23.5075 10.00625 -22.765 9.3875 -22 8.75 C-21.0925 8.04875 -20.185 7.3475 -19.25 6.625 C-18.40743652 5.8508374 -18.40743652 5.8508374 -17.54785156 5.06103516 C-11.9014955 0.1851624 -7.30390591 -0.2441145 0 0 Z " fill="#87868E" transform="translate(64.25,215.375)"/>
<path d="M0 0 C4.79008928 7.18513392 4.33578167 14.7529106 4.3125 23.125 C4.32861328 24.29160156 4.34472656 25.45820313 4.36132812 26.66015625 C4.36229492 28.34818359 4.36229492 28.34818359 4.36328125 30.0703125 C4.36626221 31.08883301 4.36924316 32.10735352 4.37231445 33.15673828 C3.93807197 36.47292712 3.01533624 38.34657739 1 41 C-2.54126434 42.18042145 -5.81095761 42.25979939 -9.5 42.3125 C-10.17675781 42.34150391 -10.85351562 42.37050781 -11.55078125 42.40039062 C-13.53125 42.42578125 -13.53125 42.42578125 -17 42 C-18.96875 39.98046875 -18.96875 39.98046875 -20 38 C-18.89591797 37.94392578 -18.89591797 37.94392578 -17.76953125 37.88671875 C-10.32858578 37.54963592 -10.32858578 37.54963592 -4 34 C-1.08882188 30.01179752 -0.59612457 27.06405527 -0.48828125 22.16796875 C-0.45283203 20.87568359 -0.41738281 19.58339844 -0.38085938 18.25195312 C-0.35776319 16.89714066 -0.33498065 15.54232282 -0.3125 14.1875 C-0.27930239 12.81311883 -0.24481047 11.43876829 -0.20898438 10.06445312 C-0.12658736 6.70971766 -0.05740605 3.35524096 0 0 Z " fill="#88878F" transform="translate(120,194)"/>
<path d="M0 0 C3.96926433 3.96926433 3.96926433 3.96926433 4.11352539 8.80712891 C4.11336673 10.44694863 4.10769881 12.08677352 4.09765625 13.7265625 C4.0962413 14.58937836 4.09482635 15.45219421 4.09336853 16.34115601 C4.08776188 19.1024723 4.07520827 21.86370812 4.0625 24.625 C4.05748586 26.4947905 4.0529228 28.36458226 4.04882812 30.234375 C4.03779029 34.82294777 4.0205212 39.41146023 4 44 C2.68 44 1.36 44 0 44 C0 29.48 0 14.96 0 0 Z " fill="#898890" transform="translate(176,88)"/>
<path d="M0 0 C2.64 0 5.28 0 8 0 C8 2.64 8 5.28 8 8 C5.36 8 2.72 8 0 8 C0 5.36 0 2.72 0 0 Z " fill="#000000" transform="translate(212,200)"/>
<path d="M0 0 C2.64 0 5.28 0 8 0 C8 2.64 8 5.28 8 8 C5.36 8 2.72 8 0 8 C0 5.36 0 2.72 0 0 Z " fill="#000000" transform="translate(88,200)"/>
<path d="M0 0 C2.64 0 5.28 0 8 0 C8 2.64 8 5.28 8 8 C5.36 8 2.72 8 0 8 C0 5.36 0 2.72 0 0 Z " fill="#000000" transform="translate(220,192)"/>
<path d="M0 0 C2.64 0 5.28 0 8 0 C8 2.64 8 5.28 8 8 C5.36 8 2.72 8 0 8 C0 5.36 0 2.72 0 0 Z " fill="#FF9811" transform="translate(212,192)"/>
<path d="M0 0 C2.64 0 5.28 0 8 0 C8 2.64 8 5.28 8 8 C5.36 8 2.72 8 0 8 C0 5.36 0 2.72 0 0 Z " fill="#000000" transform="translate(204,192)"/>
<path d="M0 0 C2.64 0 5.28 0 8 0 C8 2.64 8 5.28 8 8 C5.36 8 2.72 8 0 8 C0 5.36 0 2.72 0 0 Z " fill="#000000" transform="translate(96,192)"/>
<path d="M0 0 C2.64 0 5.28 0 8 0 C8 2.64 8 5.28 8 8 C5.36 8 2.72 8 0 8 C0 5.36 0 2.72 0 0 Z " fill="#FF9811" transform="translate(88,192)"/>
<path d="M0 0 C2.64 0 5.28 0 8 0 C8 2.64 8 5.28 8 8 C5.36 8 2.72 8 0 8 C0 5.36 0 2.72 0 0 Z " fill="#000000" transform="translate(80,192)"/>
<path d="M0 0 C2.64 0 5.28 0 8 0 C8 2.64 8 5.28 8 8 C5.36 8 2.72 8 0 8 C0 5.36 0 2.72 0 0 Z " fill="#000000" transform="translate(212,184)"/>
<path d="M0 0 C2.64 0 5.28 0 8 0 C8 2.64 8 5.28 8 8 C5.36 8 2.72 8 0 8 C0 5.36 0 2.72 0 0 Z " fill="#000000" transform="translate(192,184)"/>
<path d="M0 0 C2.64 0 5.28 0 8 0 C8 2.64 8 5.28 8 8 C5.36 8 2.72 8 0 8 C0 5.36 0 2.72 0 0 Z " fill="#000000" transform="translate(176,184)"/>
<path d="M0 0 C2.64 0 5.28 0 8 0 C8 2.64 8 5.28 8 8 C5.36 8 2.72 8 0 8 C0 5.36 0 2.72 0 0 Z " fill="#000000" transform="translate(88,184)"/>
<path d="M0 0 C2.64 0 5.28 0 8 0 C8 2.64 8 5.28 8 8 C5.36 8 2.72 8 0 8 C0 5.36 0 2.72 0 0 Z " fill="#000000" transform="translate(68,184)"/>
<path d="M0 0 C2.64 0 5.28 0 8 0 C8 2.64 8 5.28 8 8 C5.36 8 2.72 8 0 8 C0 5.36 0 2.72 0 0 Z " fill="#000000" transform="translate(52,184)"/>
<path d="M0 0 C2.64 0 5.28 0 8 0 C8 2.64 8 5.28 8 8 C5.36 8 2.72 8 0 8 C0 5.36 0 2.72 0 0 Z " fill="#000000" transform="translate(200,152)"/>
<path d="M0 0 C2.64 0 5.28 0 8 0 C8 2.64 8 5.28 8 8 C5.36 8 2.72 8 0 8 C0 5.36 0 2.72 0 0 Z " fill="#000000" transform="translate(48,152)"/>
<path d="M0 0 C2.64 0 5.28 0 8 0 C8 2.64 8 5.28 8 8 C5.36 8 2.72 8 0 8 C0 5.36 0 2.72 0 0 Z " fill="#000000" transform="translate(108,144)"/>
<path d="M0 0 C2.64 0 5.28 0 8 0 C8 2.64 8 5.28 8 8 C5.36 8 2.72 8 0 8 C0 5.36 0 2.72 0 0 Z " fill="#000000" transform="translate(92,140)"/>
<path d="M0 0 C2.64 0 5.28 0 8 0 C8 2.64 8 5.28 8 8 C5.36 8 2.72 8 0 8 C0 5.36 0 2.72 0 0 Z " fill="#000000" transform="translate(200,136)"/>
<path d="M0 0 C2.64 0 5.28 0 8 0 C8 2.64 8 5.28 8 8 C5.36 8 2.72 8 0 8 C0 5.36 0 2.72 0 0 Z " fill="#000000" transform="translate(48,136)"/>
<path d="M0 0 C2.64 0 5.28 0 8 0 C8 2.64 8 5.28 8 8 C5.36 8 2.72 8 0 8 C0 5.36 0 2.72 0 0 Z " fill="#000000" transform="translate(108,116)"/>
<path d="M0 0 C2.64 0 5.28 0 8 0 C8 2.64 8 5.28 8 8 C5.36 8 2.72 8 0 8 C0 5.36 0 2.72 0 0 Z " fill="#000000" transform="translate(92,112)"/>
</svg>
